<svg width="211" height="211" viewBox="0 0 211 211" fill="none" xmlns="http://www.w3.org/2000/svg">
<path d="M201.109 6.59375H9.89062C9.01624 6.59375 8.17767 6.9411 7.55938 7.55938C6.9411 8.17767 6.59375 9.01624 6.59375 9.89062V201.109C6.59375 201.984 6.9411 202.822 7.55938 203.441C8.17767 204.059 9.01624 204.406 9.89062 204.406H201.109C201.984 204.406 202.822 204.059 203.441 203.441C204.059 202.822 204.406 201.984 204.406 201.109V9.89062C204.406 9.01624 204.059 8.17767 203.441 7.55938C202.822 6.9411 201.984 6.59375 201.109 6.59375ZM66.7992 39.5625H70.0961L75.0414 46.1562H61.8539L66.7992 39.5625ZM34.6172 56.0469H37.9141L42.8594 62.6406H29.6719L34.6172 56.0469ZM27.5594 167.862C26.7742 165.509 26.3742 163.044 26.375 160.564V158.58C27.4712 159.701 28.4493 160.933 29.294 162.254C28.7592 165.286 28.6689 168.38 29.0257 171.438H28.7512L27.5594 167.862ZM52.75 160.564C52.7508 163.044 52.3508 165.509 51.5656 167.862L50.3738 171.438H50.0993C50.4562 168.379 50.3657 165.285 49.8306 162.253C50.6754 160.932 51.6536 159.701 52.75 158.58V160.564ZM43.0774 162.147C43.0989 162.289 43.1296 162.429 43.1693 162.566C43.7887 165.483 43.8843 168.487 43.4516 171.438H35.673C34.7727 165.323 36.1575 159.092 39.5625 153.934C41.214 156.441 42.4044 159.222 43.0774 162.147ZM29.1679 197.812L27.5421 188.058C26.9732 184.688 27.3123 181.227 28.5246 178.031H50.6004C51.8127 181.227 52.1518 184.688 51.5829 188.058L49.9571 197.812H29.1679ZM135.172 197.812V178.031H141.766V197.812H135.172ZM125.281 171.438C124.407 171.438 123.568 171.09 122.95 170.472C122.332 169.854 121.984 169.015 121.984 168.141C121.984 167.266 122.332 166.428 122.95 165.809C123.568 165.191 124.407 164.844 125.281 164.844H151.656C152.531 164.844 153.369 165.191 153.987 165.809C154.606 166.428 154.953 167.266 154.953 168.141C154.953 169.015 154.606 169.854 153.987 170.472C153.369 171.09 152.531 171.438 151.656 171.438H125.281ZM168.141 197.812V191.219H181.328V197.812H168.141ZM197.812 197.812H187.922V190.395C187.92 188.865 187.312 187.398 186.23 186.317C185.149 185.235 183.682 184.627 182.152 184.625H178.031V154.953H187.922C188.394 154.953 188.861 154.852 189.291 154.655C189.72 154.459 190.103 154.173 190.412 153.816C190.722 153.46 190.951 153.04 191.084 152.587C191.218 152.134 191.252 151.658 191.185 151.19L187.889 128.112C187.776 127.326 187.385 126.608 186.785 126.088C186.186 125.568 185.419 125.281 184.625 125.281H164.844C164.05 125.281 163.283 125.568 162.684 126.088C162.084 126.608 161.692 127.326 161.58 128.112L158.283 151.19C158.217 151.658 158.251 152.134 158.384 152.587C158.518 153.04 158.747 153.46 159.056 153.816C159.366 154.173 159.748 154.459 160.178 154.655C160.608 154.852 161.075 154.953 161.547 154.953H171.438V184.625H167.316C165.787 184.627 164.32 185.235 163.239 186.317C162.157 187.398 161.549 188.865 161.547 190.395V197.812H148.359V178.031H151.656C154.279 178.031 156.795 176.989 158.65 175.134C160.505 173.279 161.547 170.764 161.547 168.141C161.547 165.517 160.505 163.002 158.65 161.147C156.795 159.292 154.279 158.25 151.656 158.25H125.281C122.658 158.25 120.142 159.292 118.288 161.147C116.433 163.002 115.391 165.517 115.391 168.141C115.391 170.764 116.433 173.279 118.288 175.134C120.142 176.989 122.658 178.031 125.281 178.031H128.578V197.812H56.642L58.0868 189.142C58.9194 184.203 58.2953 179.128 56.2908 174.538L57.821 169.947C58.8306 166.922 59.3448 163.753 59.3438 160.564V151.656C59.3438 151.044 59.1733 150.444 58.8514 149.923C58.5295 149.402 58.0689 148.981 57.5213 148.707C56.9737 148.434 56.3606 148.318 55.7508 148.373C55.141 148.428 54.5586 148.651 54.0687 149.019L51.4313 150.997C49.9963 152.076 48.6622 153.282 47.4453 154.602C46.4902 152.513 45.3131 150.532 43.9346 148.694L42.2 146.381C41.8929 145.972 41.4947 145.639 41.0369 145.411C40.5791 145.182 40.0743 145.062 39.5625 145.062C39.0507 145.062 38.5459 145.182 38.0881 145.411C37.6303 145.639 37.2321 145.972 36.925 146.381L35.1904 148.694C33.8118 150.532 32.6348 152.513 31.6797 154.602C30.463 153.282 29.1289 152.075 27.6937 150.997L25.0562 149.019C24.5664 148.651 23.984 148.428 23.3742 148.373C22.7644 148.318 22.1513 148.434 21.6037 148.707C21.0561 148.981 20.5955 149.402 20.2736 149.923C19.9517 150.444 19.7812 151.044 19.7812 151.656V160.564C19.7809 163.753 20.2958 166.922 21.3061 169.947L22.8362 174.538C20.8311 179.128 20.2063 184.202 21.0382 189.142L22.483 197.812H13.1875V13.1875H33.2082V49.4531H32.9688C32.4569 49.4531 31.9521 49.5723 31.4943 49.8012C31.0366 50.0301 30.6383 50.3624 30.3312 50.7719L20.4406 63.9594C20.0733 64.4492 19.8496 65.0316 19.7946 65.6414C19.7396 66.2512 19.8555 66.8643 20.1293 67.4119C20.4031 67.9595 20.824 68.4201 21.3449 68.742C21.8657 69.0639 22.4659 69.2344 23.0781 69.2344H49.4531C50.0654 69.2344 50.6656 69.0639 51.1864 68.742C51.7072 68.4201 52.1281 67.9595 52.4019 67.4119C52.6758 66.8643 52.7917 66.2512 52.7367 65.6414C52.6817 65.0316 52.458 64.4492 52.0906 63.9594L42.2 50.7719C41.9168 50.3956 41.5562 50.0844 41.1425 49.8593C40.7288 49.6343 40.2717 49.5005 39.8019 49.4671V13.1875H65.3902V32.9688H65.1508C64.639 32.9688 64.1342 33.0879 63.6764 33.3168C63.2186 33.5457 62.8204 33.878 62.5133 34.2875L52.6227 47.475C52.2553 47.9648 52.0316 48.5473 51.9766 49.157C51.9216 49.7668 52.0375 50.3799 52.3113 50.9275C52.5852 51.4752 53.0061 51.9357 53.5269 52.2576C54.0477 52.5795 54.6479 52.75 55.2602 52.75H81.6352C82.2474 52.75 82.8476 52.5795 83.3684 52.2576C83.8893 51.9357 84.3102 51.4752 84.584 50.9275C84.8578 50.3799 84.9737 49.7668 84.9187 49.157C84.8637 48.5473 84.64 47.9648 84.2727 47.475L74.382 34.2875C74.0989 33.9112 73.7383 33.6 73.3246 33.3749C72.9109 33.1498 72.4537 33.0161 71.984 32.9828V13.1875H197.812V197.812ZM165.348 148.359L167.703 131.875H181.766L184.121 148.359H165.348Z" fill="white"/>
<path d="M69.2344 86.5429V90.1312C67.4758 89.2959 65.5345 88.9193 63.5912 89.0365C61.6479 89.1537 59.7658 89.7607 58.1204 90.8012C56.4749 91.8417 55.1195 93.2817 54.1805 94.9871C53.2415 96.6925 52.7494 98.6078 52.75 100.555V116.215C52.7527 118.619 53.7088 120.923 55.4085 122.623C57.1082 124.322 59.4127 125.278 61.8164 125.281H65.0119L62.7391 134.372C62.6176 134.858 62.6085 135.366 62.7124 135.856C62.8164 136.346 63.0307 136.806 63.339 137.201C63.6473 137.596 64.0416 137.915 64.4918 138.135C64.9421 138.355 65.4365 138.469 65.9375 138.469H75.8281C76.4404 138.469 77.0405 138.298 77.5613 137.976C78.0821 137.654 78.5029 137.194 78.7768 136.646L84.4593 125.281H119.947L125.629 136.646C125.903 137.194 126.324 137.654 126.845 137.976C127.366 138.298 127.966 138.469 128.578 138.469H138.469C138.97 138.469 139.464 138.355 139.914 138.135C140.365 137.915 140.759 137.596 141.067 137.201C141.376 136.806 141.59 136.346 141.694 135.856C141.798 135.366 141.789 134.858 141.667 134.372L139.394 125.279C141.78 125.25 144.058 124.282 145.736 122.586C147.414 120.89 148.356 118.601 148.359 116.215V100.555C148.357 99.8191 148.285 99.0854 148.143 98.3635C150.112 97.7026 151.835 96.4615 153.085 94.8033L159.967 85.6243C162.234 85.376 164.419 84.6328 166.367 83.4475C168.315 82.2621 169.979 80.6635 171.242 78.7644L173.998 74.6317L190.251 58.3782C190.596 58.0332 190.86 57.6161 191.024 57.1568C191.188 56.6975 191.249 56.2075 191.201 55.7221C191.153 55.2367 190.997 54.7681 190.746 54.3499C190.495 53.9317 190.155 53.5744 189.749 53.3038L169.968 40.1164C169.333 39.6935 168.572 39.5035 167.814 39.5787C167.055 39.6538 166.346 39.9895 165.807 40.5285L150.291 56.0469H125.281C124.739 56.0469 124.204 56.1808 123.726 56.4369C123.247 56.693 122.839 57.0632 122.538 57.5148L109.351 77.296C108.989 77.8376 108.797 78.474 108.797 79.125H76.6523C74.6857 79.1273 72.8002 79.9095 71.4096 81.3002C70.0189 82.6908 69.2367 84.5763 69.2344 86.5429ZM76.6523 85.7187H124.457C124.676 85.7187 124.885 85.8056 125.04 85.9601C125.194 86.1147 125.281 86.3243 125.281 86.5429V99.252C124.477 99.0227 123.645 98.9063 122.809 98.9062H78.3008C77.4645 98.9063 76.6323 99.0227 75.8281 99.252V86.5429C75.8281 86.3243 75.915 86.1147 76.0695 85.9601C76.2241 85.8056 76.4337 85.7187 76.6523 85.7187ZM136.346 82.9605C135.113 84.8084 134.515 87.007 134.642 89.2245C133.685 89.4077 132.755 89.7124 131.875 90.1312V86.5429C131.876 85.3324 131.579 84.1402 131.01 83.0717L133.639 79.125H138.902L136.346 82.9605ZM75.8281 118.687V107.973C75.8288 107.317 76.0895 106.688 76.5531 106.225C77.0166 105.761 77.6452 105.501 78.3008 105.5H122.809C123.464 105.501 124.093 105.761 124.556 106.225C125.02 106.688 125.281 107.317 125.281 107.973V118.687H75.8281ZM59.3438 116.215V100.555C59.3438 99.2431 59.8648 97.9852 60.7922 97.0578C61.7196 96.1304 62.9775 95.6093 64.2891 95.6093C65.6006 95.6093 66.8585 96.1304 67.7859 97.0578C68.7134 97.9852 69.2344 99.2431 69.2344 100.555V118.687H61.8164C61.1608 118.687 60.5323 118.426 60.0687 117.963C59.6051 117.499 59.3444 116.87 59.3438 116.215ZM73.7907 131.875H70.16L71.8084 125.281H77.0875L73.7907 131.875ZM130.616 131.875L127.319 125.281H132.598L134.246 131.875H130.616ZM141.766 116.215C141.765 116.87 141.504 117.499 141.041 117.963C140.577 118.426 139.949 118.687 139.293 118.687H131.875V100.555C131.871 99.857 132.016 99.1664 132.3 98.529C132.583 97.8915 132.999 97.3217 133.52 96.8573C134.041 96.3929 134.654 96.0445 135.32 95.8354C135.986 95.6263 136.688 95.5612 137.381 95.6444C138.434 96.7749 139.731 97.6519 141.172 98.2093C141.562 98.9295 141.766 99.7357 141.766 100.555V116.215ZM127.045 62.6406H151.656C152.089 62.6406 152.518 62.5554 152.918 62.3897C153.318 62.224 153.681 61.9812 153.988 61.675L168.561 47.1016L182.747 56.5591L169.106 70.1999C168.953 70.3535 168.815 70.5217 168.694 70.7023L165.757 75.1069C164.935 76.344 163.819 77.3583 162.509 78.0594C161.199 78.7604 159.736 79.1265 158.25 79.125C157.738 79.125 157.233 79.2441 156.776 79.473C156.318 79.7019 155.92 80.0343 155.613 80.4437L147.81 90.847C147.468 91.301 147.025 91.6695 146.517 91.9238C146.008 92.178 145.448 92.3111 144.88 92.3125C144.216 92.3128 143.566 92.1331 142.997 91.7926C142.428 91.4521 141.962 90.9634 141.649 90.3789C141.336 89.7943 141.187 89.1357 141.219 88.4733C141.251 87.811 141.462 87.1697 141.83 86.618L147.806 77.657C148.137 77.1605 148.327 76.5835 148.355 75.9874C148.384 75.3914 148.251 74.7987 147.969 74.2726C147.688 73.7464 147.269 73.3065 146.757 72.9999C146.245 72.6932 145.659 72.5312 145.062 72.5312H131.875C131.332 72.5312 130.798 72.6652 130.319 72.9213C129.841 73.1774 129.433 73.5476 129.132 73.9992L125.646 79.2292C125.253 79.1627 124.855 79.1278 124.457 79.125H116.056L127.045 62.6406Z" fill="white"/>
</svg>
