<svg width="199" height="200" viewBox="0 0 199 200" fill="none" xmlns="http://www.w3.org/2000/svg">
<g clip-path="url(#clip0_1_1650)">
<path d="M192.138 65.6897H181.845C172.385 65.6897 164.69 73.3855 164.69 82.8448V134.31H122.773L123.37 120.586H123.517C127.302 120.586 130.379 117.509 130.379 113.724V100C130.379 96.2156 127.302 93.1379 123.517 93.1379H37.7414V86.2759C37.7414 82.4914 34.6637 79.4138 30.8793 79.4138H27.4483V20.4549C30.3544 19.4187 32.6429 17.1302 33.679 14.2241H56.0013C48.333 24.2565 52.6252 37.0645 54.6838 40.6294C55.1402 41.4151 55.8881 41.9915 56.7665 42.2282C57.0581 42.3072 57.3566 42.3449 57.6551 42.3449C58.2521 42.3449 58.8457 42.1905 59.3706 41.8851L62.6747 39.9775C65.9788 43.7036 70.6827 45.7691 75.5102 45.7691C78.4197 45.7691 81.367 45.0314 84.0603 43.4771C88.0301 41.1852 90.8675 37.4831 92.0547 33.0605C92.9399 29.7599 92.8198 26.3528 91.7527 23.1894L95.0259 21.2989C96.666 20.352 97.2287 18.2522 96.2817 16.6121C95.3965 15.0785 91.914 10.426 86.5376 7.37922C81.614 4.54519 73.829 2.35962 64.4108 7.36207H33.679C32.2586 3.37864 28.4844 0.5 24.0172 0.5C18.3423 0.5 13.7241 5.11817 13.7241 10.7931C13.7241 15.2603 16.6028 19.0344 20.5862 20.4549V79.4138H17.1552C13.3707 79.4138 10.2931 82.4914 10.2931 86.2759V93.1379H6.86207C3.07764 93.1379 0 96.2156 0 100V113.724C0 117.509 3.07764 120.586 6.86207 120.586H7.0096L10.1559 192.933C10.3103 196.615 13.3227 199.5 17.0111 199.5H20.7337C24.4187 199.5 27.4311 196.615 27.589 192.936L30.7318 120.586H99.6441L102.794 192.902C102.931 196.601 105.947 199.5 109.656 199.5H113.361C117.07 199.5 120.083 196.601 120.22 192.926L121.579 161.759H178.414V192.638C178.414 196.422 181.491 199.5 185.276 199.5H192.138C195.922 199.5 199 196.422 199 192.638V158.328V137.741V72.5517C199 68.7673 195.922 65.6897 192.138 65.6897ZM85.4259 31.2867C84.7122 33.9423 83.0105 36.1587 80.6293 37.5346C76.7591 39.7682 72.0552 39.1609 68.8334 36.4229L85.5734 26.7577C85.8479 28.2468 85.8308 29.7804 85.4259 31.2867ZM83.134 13.3389C85.2063 14.5158 86.9218 16.0323 88.1639 17.3395L59.3638 33.9663C57.8781 29.0428 56.7493 19.628 66.9052 13.7644C69.849 12.0626 72.7448 11.2117 75.5754 11.2117C78.1521 11.2151 80.6773 11.9219 83.134 13.3389ZM24.0172 7.36207C25.9077 7.36207 27.4483 8.9026 27.4483 10.7931C27.4483 12.6836 25.9077 14.2241 24.0172 14.2241C22.1267 14.2241 20.5862 12.6836 20.5862 10.7931C20.5862 8.9026 22.1267 7.36207 24.0172 7.36207ZM192.138 134.31H185.276V72.5517H192.138V134.31ZM171.552 82.8448C171.552 78.3776 174.43 74.6035 178.414 73.183V134.31H171.552V82.8448ZM17.1552 86.2759H30.8793V93.1379H17.1552V86.2759ZM6.86207 100H123.517V113.724H6.86207V100ZM20.7303 192.638H17.0111L13.8751 120.586H23.8628L20.7303 192.638ZM109.652 192.628L106.513 120.586H116.501L113.361 192.638L109.652 192.628ZM122.474 141.172H192.138V154.897H121.877L122.474 141.172ZM185.276 192.638V161.759H192.138V192.638H185.276Z" fill="black"/>
</g>
<defs>
<clipPath id="clip0_1_1650">
<rect width="199" height="199" fill="white" transform="translate(0 0.5)"/>
</clipPath>
</defs>
</svg>
