<svg width="37" height="37" viewBox="0 0 37 37" fill="none" xmlns="http://www.w3.org/2000/svg">
<g clip-path="url(#clip0_1_1859)">
<path d="M36.201 17.2834V17.2789L20.4301 1.50803C19.3632 0.446542 17.639 0.446542 16.5721 1.50803L0.801209 17.2789C-0.265343 18.3431 -0.267324 20.0703 0.796805 21.1369C1.86093 22.2035 3.5882 22.2054 4.65476 21.1413L18.5011 7.29055L32.343 21.1413C33.4084 22.2066 35.1357 22.2066 36.201 21.1413C37.2663 20.076 37.2663 18.3487 36.201 17.2834Z" fill="white"/>
<path d="M18.4923 9.05225L5.72934 21.824V34.5209C5.7769 35.5358 6.63426 36.3224 7.64951 36.2825H12.8815C13.1247 36.2825 13.3219 36.0853 13.3219 35.8421V27.2674C13.3223 24.4071 15.6413 22.0886 18.5018 22.0889C21.3616 22.0892 23.6799 24.4075 23.6803 27.2674V35.8465C23.6803 36.0897 23.8775 36.2869 24.1207 36.2869H29.3439C30.3591 36.3268 31.2165 35.5402 31.264 34.5253V21.824L18.4923 9.05225Z" fill="white"/>
</g>
<defs>
<clipPath id="clip0_1_1859">
<rect width="37" height="37" fill="white"/>
</clipPath>
</defs>
</svg>
