<svg width="41" height="41" viewBox="0 0 41 41" fill="none" xmlns="http://www.w3.org/2000/svg">
<circle cx="20.5" cy="20.5" r="20.5" fill="#191A23"/>
<path d="M10.6604 19.5C9.83197 19.5 9.1604 20.1716 9.1604 21C9.1604 21.8284 9.83197 22.5 10.6604 22.5V19.5ZM31.7211 22.0607C32.3068 21.4749 32.3068 20.5251 31.7211 19.9393L22.1751 10.3934C21.5893 9.80761 20.6396 9.80761 20.0538 10.3934C19.468 10.9792 19.468 11.9289 20.0538 12.5147L28.5391 21L20.0538 29.4853C19.468 30.0711 19.468 31.0208 20.0538 31.6066C20.6396 32.1924 21.5893 32.1924 22.1751 31.6066L31.7211 22.0607ZM10.6604 22.5H30.6604V19.5H10.6604V22.5Z" fill="white"/>
</svg>
