<svg width="41" height="41" viewBox="0 0 41 41" fill="none" xmlns="http://www.w3.org/2000/svg">
<circle cx="20.5" cy="20.5" r="20.5" transform="rotate(-180 20.5 20.5)" fill="#191A23"/>
<path d="M30.3397 21.5C31.1681 21.5 31.8397 20.8284 31.8397 20C31.8397 19.1716 31.1681 18.5 30.3397 18.5V21.5ZM9.279 18.9393C8.69321 19.5251 8.69321 20.4749 9.279 21.0607L18.8249 30.6066C19.4107 31.1924 20.3605 31.1924 20.9463 30.6066C21.532 30.0208 21.532 29.0711 20.9463 28.4853L12.461 20L20.9463 11.5147C21.532 10.9289 21.532 9.97919 20.9463 9.3934C20.3605 8.80761 19.4107 8.80761 18.8249 9.3934L9.279 18.9393ZM30.3397 18.5L10.3397 18.5V21.5L30.3397 21.5V18.5Z" fill="white"/>
</svg>
