<svg width="227" height="226" viewBox="0 0 227 226" fill="none" xmlns="http://www.w3.org/2000/svg">
<g clip-path="url(#clip0_1_1767)">
<path d="M207.306 0H197.869C196.031 0 194.543 1.48261 194.543 3.31137C194.543 5.14013 196.031 6.62274 197.869 6.62274H207.306C213.272 6.62274 218.126 11.4534 218.126 17.3913V164.69C218.126 170.628 213.272 175.458 207.306 175.458H139.072C139.727 157.8 139.752 140.084 139.164 122.42H167.258C169.095 122.42 170.584 120.938 170.584 119.109C170.584 117.28 169.095 115.798 167.258 115.798H138.915C138.782 112.643 138.634 109.489 138.461 106.34H203.365C205.203 106.34 206.691 104.857 206.691 103.028C206.691 101.199 205.203 99.7168 203.365 99.7168H138.068C137.898 97.0575 137.719 94.4 137.521 91.7461C137.484 91.245 137.425 90.75 137.355 90.2586H203.365C205.202 90.2586 206.691 88.776 206.691 86.9473C206.691 85.1185 205.202 83.6359 203.365 83.6359H135.33C131.995 76.803 125.265 71.9445 117.23 71.1913C105.477 70.0871 93.6603 69.4081 81.8294 69.148C84.7985 62.0542 91.827 57.2226 99.8077 57.2226H113.69C123.32 57.2226 131.155 49.4224 131.155 39.8344V26.0185C131.155 15.3241 139.894 6.62362 150.636 6.62362C150.64 6.62362 150.644 6.62318 150.649 6.62318H184.565C186.402 6.62318 187.891 5.14057 187.891 3.31181C187.891 1.48305 186.402 0.000441516 184.565 0.000441516H144.653C132.917 0.000441516 121.882 4.55203 113.582 12.8159L86.5413 39.732C78.6316 47.6161 74.114 57.9715 73.7117 69.0411C57.2989 68.9484 40.8795 69.6597 24.5811 71.1918C13.6318 72.2178 5.09771 80.8623 4.2897 91.7452C1.53177 128.748 1.53177 166.274 4.2897 203.28C5.09771 214.162 13.6314 222.804 24.5798 223.83C26.7031 224.03 28.8823 224.218 31.2424 224.408C33.0828 224.549 34.6771 223.195 34.8243 221.372C34.9716 219.549 33.607 217.953 31.7759 217.806C29.4468 217.62 27.2973 217.433 25.2046 217.236C17.4976 216.514 11.4916 210.439 10.9236 202.79C8.19002 166.108 8.19002 128.912 10.9236 92.234C11.4912 84.5838 17.4976 78.5072 25.2055 77.7849C55.5299 74.9349 86.281 74.9349 116.605 77.7849C124.313 78.5072 130.319 84.5838 130.887 92.2349C133.62 128.912 133.62 166.109 130.887 202.791C130.319 210.439 124.313 216.514 116.605 217.236C92.7587 219.476 68.5879 219.961 44.7629 218.679C42.9243 218.58 41.3611 219.98 41.2617 221.806C41.1624 223.633 42.5691 225.193 44.4033 225.292C53.1773 225.764 61.9944 226 70.8283 226C86.3111 226 101.839 225.275 117.229 223.83C128.179 222.803 136.713 214.161 137.521 203.28C138.046 196.23 138.47 189.161 138.795 182.081H207.305C216.94 182.081 224.778 174.28 224.778 164.69V17.3913C224.778 7.80158 216.94 0 207.306 0ZM91.2465 44.4138L118.285 17.499C121.863 13.9364 126.042 11.1915 130.591 9.34865C126.793 13.8667 124.502 19.6806 124.502 26.019V39.8353C124.502 45.7715 119.652 50.6008 113.689 50.6008H99.8072C93.506 50.6008 87.6464 52.8472 83.0783 56.6359C84.9284 52.1187 87.6792 47.9694 91.2465 44.4138Z" fill="black"/>
<path d="M26.4423 127.832H115.368C118.25 127.832 120.937 126.692 122.933 124.622C124.927 122.554 125.96 119.84 125.843 116.978C125.51 108.878 125.038 100.712 124.441 92.7089C124.104 88.201 120.553 84.6177 115.997 84.1885C101.039 82.785 85.8677 82.0732 70.9054 82.0732C55.9432 82.0732 40.7726 82.785 25.8126 84.1885C21.2577 84.6177 17.7069 88.201 17.3698 92.7089C16.7725 100.712 16.3011 108.877 15.968 116.978C15.8505 119.839 16.8838 122.554 18.8776 124.621C20.8732 126.692 23.5602 127.832 26.4423 127.832ZM24.0037 93.2003C24.099 91.923 25.1234 90.9062 26.4383 90.7821C41.1899 89.398 56.1508 88.696 70.9054 88.696C85.6601 88.696 100.621 89.398 115.371 90.7821C116.687 90.9062 117.712 91.923 117.807 93.1999C118.399 101.13 118.867 109.221 119.196 117.249C119.239 118.291 118.862 119.281 118.134 120.035C117.405 120.792 116.422 121.209 115.369 121.209H26.4423C25.3886 121.209 24.4059 120.792 23.6764 120.035C22.9487 119.281 22.5722 118.291 22.6147 117.249C22.9442 109.221 23.4121 101.13 24.0037 93.2003Z" fill="black"/>
<path d="M17.3698 202.313C17.7069 206.82 21.2577 210.404 25.8139 210.833C40.7717 212.236 55.9424 212.948 70.9055 212.948C85.8686 212.948 101.039 212.237 115.998 210.833C120.553 210.404 124.104 206.82 124.441 202.313V202.312C125.833 183.636 126.516 164.61 126.47 145.764C126.456 139.969 121.706 135.255 115.881 135.255H25.9297C20.1047 135.255 15.3547 139.969 15.341 145.764C15.2953 164.61 15.9778 183.636 17.3698 202.313ZM46.7404 141.878H67.5799V152.108H46.7479C46.7368 148.693 46.7342 145.283 46.7404 141.878ZM95.0639 152.108H74.2319V141.878H95.0714C95.0776 145.282 95.075 148.693 95.0639 152.108ZM94.9175 170.791H74.2315V158.731H95.032C95.0062 162.748 94.9677 166.769 94.9175 170.791ZM101.684 158.731H119.73C119.668 162.751 119.57 166.772 119.442 170.791H101.57C101.62 166.769 101.658 162.748 101.684 158.731ZM22.6085 177.414H40.3353C40.3961 181.309 40.4675 185.202 40.5504 189.092C34.7348 188.948 28.9262 188.763 23.1407 188.538C22.9332 184.838 22.7598 181.128 22.6085 177.414ZM46.9878 177.414H67.5799V189.462C60.8112 189.444 54.0115 189.369 47.2069 189.238C47.1217 185.299 47.0499 181.358 46.9878 177.414ZM67.5799 196.085V206.306C60.9518 206.259 54.2909 206.074 47.63 205.746C47.5324 202.458 47.4428 199.163 47.3612 195.864C54.1144 195.993 60.8622 196.067 67.5799 196.085ZM74.2319 196.085C80.9194 196.066 87.6885 195.992 94.451 195.864C94.3694 199.163 94.2798 202.458 94.1823 205.747C87.5214 206.074 80.8605 206.259 74.2319 206.306V196.085ZM94.6053 189.236C87.7914 189.367 80.97 189.443 74.2319 189.462V177.414H94.824C94.7619 181.357 94.69 185.298 94.6053 189.236ZM67.5799 158.731V170.791H46.8942C46.8441 166.769 46.806 162.749 46.7794 158.731H67.5799ZM40.2418 170.791H22.3686C22.2413 166.772 22.1429 162.751 22.0812 158.731H40.1273C40.1535 162.749 40.1916 166.769 40.2418 170.791ZM24.0037 201.822C23.8392 199.613 23.6857 197.399 23.5416 195.181C29.2464 195.399 34.9716 195.58 40.7039 195.72C40.7832 198.941 40.8702 202.158 40.9646 205.37C36.1104 205.064 31.2637 204.692 26.4401 204.239C25.1234 204.115 24.099 203.098 24.0037 201.822ZM115.372 204.239C110.549 204.692 105.701 205.064 100.847 205.37C101.12 196.083 101.33 186.752 101.476 177.414H119.202C118.869 185.586 118.409 193.738 117.807 201.821C117.712 203.098 116.687 204.115 115.372 204.239ZM119.818 145.78C119.823 147.888 119.816 149.998 119.803 152.108H101.716C101.727 148.693 101.73 145.283 101.724 141.878H115.882C118.046 141.878 119.813 143.628 119.818 145.78ZM25.9297 141.878H40.0883C40.0821 145.283 40.0848 148.693 40.0959 152.108H22.0081C21.9948 149.998 21.9877 147.888 21.993 145.78C21.9979 143.628 23.7642 141.878 25.9297 141.878Z" fill="black"/>
<path d="M202.037 128.829C203.449 129.998 205.546 129.807 206.721 128.402C207.896 126.996 207.704 124.908 206.291 123.738C205.697 123.246 203.483 121.575 200.118 120.916V119.057C200.118 117.228 198.629 115.746 196.792 115.746C194.955 115.746 193.466 117.228 193.466 119.057V121.147C193.255 121.202 193.042 121.26 192.828 121.324C188.869 122.511 185.912 125.877 185.112 130.106C184.378 133.986 185.643 137.741 188.413 139.904C189.725 140.928 191.324 141.867 193.466 142.844V156.949C191.939 156.739 190.803 156.227 188.984 155.042C187.446 154.04 185.385 154.47 184.379 156C183.373 157.53 183.804 159.582 185.341 160.584C188.519 162.654 190.759 163.378 193.466 163.608V165.693C193.466 167.522 194.955 169.004 196.792 169.004C198.63 169.004 200.118 167.522 200.118 165.693V163.292C205.678 161.895 209.242 157.169 210.028 152.51C211.055 146.429 207.865 141.142 201.901 139.044C201.315 138.837 200.717 138.623 200.118 138.402V127.778C201.218 128.186 201.897 128.712 202.037 128.829ZM203.469 151.413C203.161 153.233 202.024 155.147 200.118 156.221V145.464C203.771 146.985 203.69 150.103 203.469 151.413ZM192.519 134.692C191.722 134.07 191.38 132.751 191.649 131.332C191.845 130.293 192.42 129.094 193.466 128.311V135.354C193.125 135.137 192.806 134.917 192.519 134.692Z" fill="black"/>
<path d="M152.546 70.4161H191.217C193.054 70.4161 194.543 68.9334 194.543 67.1047V43.496C195.85 44.5658 197.783 44.4933 199.005 43.2779C200.304 41.9847 200.304 39.8879 199.005 38.5951L174.234 13.9334C173.61 13.3122 172.764 12.9634 171.882 12.9634C170.999 12.9634 170.154 13.3122 169.53 13.9334L144.759 38.5951C143.46 39.8883 143.46 41.9851 144.759 43.2779C145.409 43.9242 146.26 44.2479 147.111 44.2479C147.86 44.2479 148.609 43.9971 149.22 43.4964V67.1047C149.22 68.9334 150.709 70.4161 152.546 70.4161ZM171.882 20.957L187.891 36.8962V63.7929H155.872V36.8966L171.882 20.957Z" fill="black"/>
<path d="M164.76 57.2559H179.002C180.84 57.2559 182.329 55.7733 182.329 53.9445V39.7652C182.329 37.9365 180.84 36.4539 179.002 36.4539H164.76C162.923 36.4539 161.434 37.9365 161.434 39.7652V53.9445C161.434 55.7733 162.924 57.2559 164.76 57.2559ZM168.086 43.0766H175.676V50.6331H168.086V43.0766Z" fill="black"/>
</g>
<defs>
<clipPath id="clip0_1_1767">
<rect width="227" height="226" fill="white"/>
</clipPath>
</defs>
</svg>
