<svg width="37" height="37" viewBox="0 0 37 37" fill="none" xmlns="http://www.w3.org/2000/svg">
<g clip-path="url(#clip0_1_1064)">
<path d="M36.201 17.2833V17.2789L20.4301 1.50795C19.3632 0.446466 17.639 0.446466 16.5721 1.50795L0.801209 17.2789C-0.265343 18.343 -0.267324 20.0703 0.796805 21.1368C1.86093 22.2034 3.5882 22.2054 4.65476 21.1412L18.5011 7.29048L32.343 21.1412C33.4084 22.2066 35.1357 22.2066 36.201 21.1412C37.2663 20.0759 37.2663 18.3486 36.201 17.2833Z" fill="black"/>
<path d="M18.4923 9.05209L5.72934 21.8238V34.5207C5.7769 35.5357 6.63426 36.3222 7.64951 36.2824H12.8815C13.1247 36.2824 13.3219 36.0852 13.3219 35.842V27.2673C13.3223 24.4069 15.6413 22.0884 18.5018 22.0888C21.3616 22.0891 23.6799 24.4074 23.6803 27.2673V35.8464C23.6803 36.0896 23.8775 36.2868 24.1207 36.2868H29.3439C30.3591 36.3266 31.2165 35.5401 31.264 34.5251V21.8238L18.4923 9.05209Z" fill="black"/>
</g>
<defs>
<clipPath id="clip0_1_1064">
<rect width="37" height="37" fill="white"/>
</clipPath>
</defs>
</svg>
