<svg width="212" height="212" viewBox="0 0 212 212" fill="none" xmlns="http://www.w3.org/2000/svg">
<path d="M134.154 176.304H20.4321C16.6679 176.304 13.6057 173.242 13.6057 169.477V152.466C7.22214 151.349 2.35556 145.766 2.35556 139.062C2.35556 135.421 3.76889 132.005 6.34116 129.433C8.90872 126.865 12.329 125.447 15.966 125.447C18.0388 125.447 20.0222 125.9 21.8643 126.79C26.5471 129.047 29.5717 133.866 29.5717 139.062V147.962H125.019V139.062C125.019 133.871 128.043 129.051 132.721 126.79C134.582 125.9 136.566 125.447 138.624 125.447C146.129 125.447 152.235 131.553 152.235 139.062C152.235 142.695 150.822 146.11 148.254 148.683C146.242 150.69 143.722 151.99 140.985 152.466V169.473C140.985 173.242 137.923 176.304 134.154 176.304ZM15.966 130.163C13.5869 130.163 11.3538 131.087 9.67192 132.768C7.99005 134.45 7.06667 136.683 7.06667 139.067C7.06667 143.971 11.057 147.966 15.966 147.966C17.2662 147.966 18.3215 149.022 18.3215 150.322V169.482C18.3215 170.646 19.2685 171.597 20.4368 171.597H134.158C135.327 171.597 136.278 170.651 136.278 169.482V150.322C136.278 149.022 137.334 147.966 138.634 147.966C141.008 147.966 143.246 147.043 144.928 145.361C146.605 143.679 147.528 141.446 147.528 139.072C147.528 134.163 143.538 130.168 138.629 130.168C137.282 130.168 135.982 130.465 134.766 131.044C131.661 132.542 129.73 135.619 129.73 139.072V150.327C129.73 151.627 128.675 152.682 127.374 152.682H27.2161C25.9158 152.682 24.8605 151.627 24.8605 150.327V139.072C24.8605 135.671 22.8772 132.519 19.8149 131.044C18.6136 130.455 17.3228 130.163 15.966 130.163Z" fill="white"/>
<path d="M133.748 131.275C132.448 131.275 131.393 130.22 131.393 128.919V109.774C131.393 108.605 130.441 107.658 129.278 107.658H25.3128C24.1444 107.658 23.1975 108.605 23.1975 109.774V128.919C23.1975 130.22 22.1422 131.275 20.8419 131.275C19.5417 131.275 18.4864 130.22 18.4864 128.919V109.774C18.4864 106.009 21.5486 102.947 25.3128 102.947H129.282C133.046 102.947 136.109 106.009 136.109 109.774V128.919C136.104 130.22 135.053 131.275 133.748 131.275Z" fill="white"/>
<path d="M77.2952 144.725C75.9949 144.725 74.9396 143.67 74.9396 142.37V113.269C74.9396 111.969 75.9949 110.914 77.2952 110.914C78.5955 110.914 79.6507 111.969 79.6507 113.269V142.37C79.6507 143.67 78.5955 144.725 77.2952 144.725Z" fill="white"/>
<path d="M37.7266 185.509H27.2161C25.9158 185.509 24.8605 184.454 24.8605 183.154V173.948C24.8605 172.648 25.9158 171.593 27.2161 171.593H37.7266C39.0268 171.593 40.0821 172.648 40.0821 173.948V183.154C40.0821 184.454 39.0316 185.509 37.7266 185.509ZM29.5716 180.798H35.371V176.304H29.5716V180.798Z" fill="white"/>
<path d="M127.374 185.509H116.864C115.564 185.509 114.508 184.454 114.508 183.154V173.948C114.508 172.648 115.564 171.593 116.864 171.593H127.374C128.675 171.593 129.73 172.648 129.73 173.948V183.154C129.73 184.454 128.675 185.509 127.374 185.509ZM119.219 180.798H125.019V176.304H119.219V180.798Z" fill="white"/>
<path d="M203.887 182.683H164.102C162.802 182.683 161.747 181.627 161.747 180.327V173.586C161.747 169.689 164.917 166.514 168.818 166.514H199.176C203.072 166.514 206.248 169.685 206.248 173.586V180.327C206.243 181.627 205.192 182.683 203.887 182.683ZM166.458 177.972H201.532V173.586C201.532 172.285 200.472 171.225 199.172 171.225H168.813C167.513 171.225 166.453 172.285 166.453 173.586L166.458 177.972Z" fill="white"/>
<path d="M183.992 171.225C182.692 171.225 181.637 170.17 181.637 168.87V75.9195C181.637 74.6193 182.692 73.564 183.992 73.564C185.293 73.564 186.348 74.6193 186.348 75.9195V168.87C186.348 170.175 185.297 171.225 183.992 171.225Z" fill="white"/>
<path d="M207.289 78.275H160.705C160.018 78.275 159.363 77.9735 158.915 77.4506C158.468 76.9277 158.27 76.2351 158.378 75.5567L164.187 38.3013C164.366 37.1565 165.355 36.3085 166.514 36.3085H201.475C202.634 36.3085 203.624 37.1518 203.803 38.3013L209.611 75.5567C209.72 76.2351 209.522 76.9277 209.074 77.4506C208.632 77.9735 207.977 78.275 207.289 78.275ZM163.457 73.5639H204.538L199.464 41.0196H168.535L163.457 73.5639Z" fill="white"/>
<path d="M192.091 41.0196C190.814 41.0196 189.768 40.002 189.735 38.7159C189.665 35.6254 187.088 33.1097 183.992 33.1097C180.897 33.1097 178.32 35.6254 178.25 38.7159C178.221 40.0162 177.152 41.0526 175.842 41.0149C174.542 40.9866 173.51 39.9078 173.543 38.6075C173.675 32.9778 178.363 28.3986 183.997 28.3986C189.632 28.3986 194.319 32.9778 194.451 38.6075C194.479 39.9078 193.452 40.9866 192.152 41.0149C192.129 41.0196 192.11 41.0196 192.091 41.0196Z" fill="white"/>
<path d="M104.733 90.067H49.8575C48.5572 90.067 47.502 89.0117 47.502 87.7114V43.2668C47.502 41.9665 48.5572 40.9113 49.8575 40.9113H104.733C106.033 40.9113 107.088 41.9665 107.088 43.2668V87.7114C107.088 89.0117 106.033 90.067 104.733 90.067ZM52.2131 85.3559H102.377V45.6224H52.2131V85.3559Z" fill="white"/>
<path d="M49.8577 80.593C49.2641 80.593 48.6705 80.3716 48.2135 79.924C47.2807 79.0148 47.2619 77.5261 48.1711 76.5933L63.5293 60.8393C63.9722 60.387 64.5799 60.1279 65.2159 60.1279C65.8519 60.1279 66.4596 60.3823 66.9025 60.8393L80.5176 74.8078C81.4268 75.7406 81.408 77.2293 80.4752 78.1385C79.5424 79.0478 78.0537 79.0289 77.1444 78.0961L65.2159 65.8566L51.5443 79.8816C51.0826 80.3574 50.4701 80.593 49.8577 80.593Z" fill="white"/>
<path d="M104.733 82.9061C104.12 82.9061 103.508 82.6706 103.046 82.1948L89.7843 68.5938L77.6909 80.9981C76.7817 81.9309 75.293 81.9498 74.3602 81.0405C73.4274 80.1313 73.4085 78.6426 74.3178 77.7098L88.0978 63.5717C88.5406 63.1148 89.1483 62.8604 89.7843 62.8604C90.4203 62.8604 91.0281 63.1148 91.4709 63.5717L106.419 78.9064C107.329 79.8392 107.31 81.3279 106.377 82.2372C105.92 82.68 105.326 82.9061 104.733 82.9061Z" fill="white"/>
<path d="M79.109 63.1618C75.3778 63.1618 72.3438 60.1278 72.3438 56.3966C72.3438 52.6654 75.3778 49.6315 79.109 49.6315C82.8402 49.6315 85.8741 52.6654 85.8741 56.3966C85.8741 60.1278 82.8402 63.1618 79.109 63.1618ZM79.109 54.3426C77.9783 54.3426 77.0549 55.266 77.0549 56.3966C77.0549 57.5273 77.9783 58.4507 79.109 58.4507C80.2396 58.4507 81.163 57.5273 81.163 56.3966C81.163 55.266 80.2443 54.3426 79.109 54.3426Z" fill="white"/>
<path d="M86.3782 45.6223C85.5962 45.6223 84.8282 45.2313 84.3807 44.5199L77.2952 33.2651L70.2097 44.5199C69.5171 45.6223 68.0614 45.9521 66.959 45.2596C65.8566 44.5671 65.5268 43.1113 66.2194 42.0089L75.2977 27.5929C75.7311 26.9098 76.4802 26.4952 77.2905 26.4952C78.1008 26.4952 78.8546 26.9098 79.2833 27.5929L88.3616 42.0089C89.0541 43.1113 88.7243 44.5623 87.6219 45.2596C87.2403 45.5046 86.8069 45.6223 86.3782 45.6223Z" fill="white"/>
</svg>
