<svg width="30" height="30" viewBox="0 0 30 30" fill="none" xmlns="http://www.w3.org/2000/svg">
<path d="M15 1.2002C7.39067 1.2002 1.19995 7.39092 1.19995 15.0002C1.19995 20.9307 4.9605 25.9984 10.2218 27.9464C10.0702 26.5954 10.094 24.383 10.3441 23.3118C10.5782 22.3056 11.8568 16.8995 11.8568 16.8995C11.8568 16.8995 11.4708 16.1265 11.4708 14.9848C11.4708 13.1907 12.5103 11.8521 13.8047 11.8521C14.9057 11.8521 15.4366 12.6787 15.4366 13.669C15.4366 14.7764 14.7325 16.4306 14.3678 17.9637C14.0637 19.2483 15.0119 20.2956 16.278 20.2956C18.5708 20.2956 20.3331 17.8779 20.3331 14.3884C20.3331 11.2999 18.1143 9.14012 14.9454 9.14012C11.2753 9.14012 9.12102 11.8933 9.12102 14.7387C9.12102 15.8471 9.54773 17.0359 10.0811 17.6829C10.1863 17.8109 10.2016 17.9226 10.1704 18.0525C10.0727 18.4599 9.85535 19.3361 9.81217 19.5157C9.7561 19.7524 9.62511 19.8015 9.38099 19.6878C7.76952 18.9377 6.76229 16.5824 6.76229 14.6901C6.76229 10.6212 9.71838 6.88361 15.2862 6.88361C19.7615 6.88361 23.2391 10.0719 23.2391 14.3344C23.2391 18.7804 20.4353 22.3581 16.545 22.3581C15.2376 22.3581 14.0091 21.6789 13.5889 20.8766C13.5889 20.8766 12.9419 23.3396 12.7846 23.9434C12.5132 24.9876 11.3511 27.151 10.7677 28.1336C12.1022 28.5647 13.5238 28.8002 15 28.8002C22.6095 28.8002 28.8 22.6098 28.8 15.0002C28.8 7.39092 22.6095 1.2002 15 1.2002Z" fill="white"/>
</svg>
