<svg width="30" height="30" viewBox="0 0 30 30" fill="none" xmlns="http://www.w3.org/2000/svg">
<path d="M28.6019 22.001C27.4787 19.9798 24.5856 17.551 23.3912 16.4941C23.0644 16.2048 23.0294 15.7041 23.3269 15.3841C25.6062 12.9348 27.4294 10.1204 28.0569 8.41977C28.3337 7.66852 27.7606 6.87477 26.9531 6.87477H24.6075C23.8344 6.87477 23.3819 7.15227 23.1662 7.59414C21.2719 11.476 19.6469 13.156 18.5094 14.1379C17.8725 14.6879 16.8794 14.2323 16.8794 13.3954C16.8794 11.7829 16.8794 9.69852 16.8794 8.22039C16.8794 7.50352 16.2931 6.92352 15.57 6.92352L11.285 6.87477C10.7456 6.87477 10.4375 7.48539 10.7612 7.91352L11.4687 8.92914C11.735 9.28102 11.8787 9.70914 11.8787 10.1485L11.875 14.7223C11.875 15.5179 10.9106 15.9066 10.3381 15.3491C8.40124 13.4629 6.72062 9.61102 6.11562 7.76914C5.94062 7.23602 5.44124 6.87602 4.87499 6.87477L2.56437 6.86914C1.69749 6.86914 1.06374 7.69102 1.29937 8.51852C3.41062 15.9291 7.74249 22.9791 15.4625 23.7435C16.2231 23.8185 16.8794 23.206 16.8794 22.4479V20.0441C16.8794 19.3548 17.42 18.7623 18.115 18.7448C18.1394 18.7441 18.1637 18.7441 18.1881 18.7441C20.23 18.7441 22.5169 21.716 23.3169 23.106C23.5469 23.506 23.9769 23.7498 24.4419 23.7498H27.55C28.4569 23.7498 29.0387 22.7879 28.6019 22.001Z" fill="white"/>
</svg>
